<svg width="180" height="180" viewBox="0 0 180 180" fill="none" xmlns="http://www.w3.org/2000/svg">
<path d="M172.868 0.000339813H118.836C116.229 0.000181653 113.699 1.09879 111.663 3.11558C109.626 5.13236 108.204 7.9473 107.631 11.0976L80.3303 161.083C80.0325 162.719 80.0273 164.416 80.3149 166.054C80.6026 167.693 81.1762 169.234 81.9955 170.569C82.8148 171.904 83.86 173.001 85.0579 173.783C86.2557 174.565 87.5771 175.013 88.9294 175.096L144.474 178.485C147.449 178.667 150.375 177.502 152.706 175.207C155.038 172.913 156.616 169.647 157.146 166.017L172.634 59.9764L173.786 60.3841L176.75 40.2852L175.564 39.9181L179.887 10.318C180.072 9.05018 180.029 7.7473 179.761 6.50231C179.494 5.25732 179.007 4.10087 178.337 3.11541C177.667 2.12996 176.829 1.33977 175.884 0.801175C174.939 0.262582 173.91 -0.0111456 172.87 -0.000494112L172.868 0.000339813Z" fill="#3F3D56"/>
<path d="M125.949 3.23358H119.642C117.831 3.2336 116.074 4.00084 114.663 5.40794C113.253 6.81503 112.273 8.77735 111.887 10.9691L85.6812 159.731C85.5303 160.587 85.5304 161.474 85.6815 162.33C85.8327 163.187 86.1313 163.993 86.557 164.693C86.9828 165.394 87.5255 165.972 88.1483 166.389C88.771 166.805 89.459 167.051 90.1654 167.108L145.53 171.602C147.092 171.729 148.637 171.139 149.87 169.945C151.103 168.751 151.938 167.036 152.215 165.128L174.577 11.3688C174.721 10.3736 174.688 9.35124 174.479 8.37378C174.27 7.39632 173.89 6.48762 173.366 5.71181C172.843 4.93599 172.188 4.31196 171.448 3.88375C170.709 3.45555 169.902 3.23361 169.086 3.23358H163.103C162.524 3.23356 161.961 3.46999 161.501 3.90626C161.042 4.34253 160.711 4.95432 160.56 5.6469V5.6469C160.427 6.25853 160.135 6.7988 159.729 7.18401C159.323 7.56922 158.826 7.77787 158.315 7.77763H129.911C128.91 7.77759 127.946 7.30959 127.211 6.46716C126.476 5.62472 126.026 4.46993 125.949 3.23358V3.23358Z" fill="white"/>
<path d="M156.554 107.231C156.662 107.235 156.767 107.192 156.851 107.108C156.935 107.024 156.992 106.906 157.011 106.775L169.255 23.0816C169.266 23.002 169.264 22.9203 169.248 22.842C169.232 22.7636 169.202 22.6906 169.161 22.6277C169.12 22.5653 169.069 22.5148 169.011 22.4798C168.953 22.4447 168.889 22.426 168.824 22.4249L113.121 21.61H113.116C113.015 21.6111 112.917 21.6546 112.839 21.7336C112.76 21.8125 112.705 21.9221 112.684 22.0445L98.2503 103.021C98.2362 103.1 98.236 103.182 98.2498 103.261C98.2636 103.34 98.291 103.415 98.3302 103.48C98.369 103.544 98.4188 103.597 98.4759 103.635C98.5331 103.672 98.5963 103.694 98.661 103.698L156.554 107.231Z" fill="#E6E6E6"/>
<path d="M108.215 112.642C108.164 112.642 108.115 112.663 108.076 112.702C108.036 112.741 108.008 112.796 107.997 112.857L107.475 115.626C107.468 115.665 107.467 115.706 107.474 115.745C107.48 115.784 107.493 115.821 107.513 115.854C107.532 115.886 107.557 115.913 107.585 115.932C107.613 115.952 107.645 115.964 107.677 115.967L137.146 118.561C137.2 118.565 137.254 118.545 137.298 118.503C137.341 118.462 137.371 118.403 137.382 118.336L137.884 115.132C137.89 115.094 137.889 115.053 137.882 115.015C137.874 114.976 137.86 114.94 137.841 114.909C137.821 114.878 137.796 114.852 137.768 114.834C137.74 114.815 137.709 114.804 137.677 114.802L108.229 112.642L108.215 112.642Z" fill="#E6E6E6"/>
<path d="M144.018 128.846C144.071 128.851 144.124 128.833 144.167 128.794C144.21 128.756 144.241 128.699 144.254 128.635L144.892 125.425C144.9 125.385 144.901 125.344 144.895 125.305C144.888 125.265 144.875 125.227 144.856 125.195C144.837 125.162 144.812 125.135 144.783 125.115C144.755 125.095 144.723 125.084 144.69 125.081L107.057 121.821C107.006 121.816 106.955 121.833 106.913 121.869C106.871 121.905 106.84 121.958 106.826 122.019L106.162 124.793C106.153 124.833 106.151 124.875 106.156 124.916C106.161 124.957 106.174 124.995 106.193 125.03C106.212 125.064 106.236 125.092 106.265 125.113C106.294 125.134 106.326 125.146 106.36 125.149L144.018 128.846Z" fill="#E6E6E6"/>
<path d="M141.997 139.137C142.05 139.142 142.103 139.124 142.146 139.085C142.189 139.046 142.22 138.99 142.233 138.926L142.871 135.716C142.879 135.676 142.88 135.635 142.874 135.595C142.867 135.556 142.854 135.518 142.835 135.485C142.816 135.453 142.791 135.425 142.762 135.406C142.734 135.386 142.702 135.374 142.669 135.371L105.036 132.112C104.985 132.107 104.934 132.124 104.892 132.16C104.85 132.196 104.819 132.249 104.805 132.31L104.141 135.084C104.132 135.124 104.13 135.166 104.135 135.206C104.14 135.247 104.153 135.286 104.172 135.32C104.191 135.354 104.215 135.383 104.244 135.404C104.273 135.424 104.305 135.437 104.339 135.44L141.997 139.137Z" fill="#E6E6E6"/>
<path d="M76.7482 175.365C76.7482 177.693 59.5461 177.941 38.3741 179.58C17.2209 181.217 0 177.693 0 175.365C0 173.037 17.3013 168.354 38.3741 171.151C59.5461 173.96 76.7482 173.037 76.7482 175.365Z" fill="#E6E6E6"/>
<path d="M124.664 156.729C124.718 156.736 124.772 156.718 124.816 156.68C124.86 156.641 124.891 156.584 124.903 156.519L126.253 149.83C126.261 149.791 126.262 149.75 126.256 149.71C126.25 149.671 126.237 149.633 126.218 149.601C126.199 149.568 126.175 149.54 126.147 149.52C126.118 149.501 126.087 149.488 126.055 149.485L102.944 147.078C102.89 147.073 102.837 147.092 102.793 147.132C102.75 147.172 102.719 147.229 102.706 147.294L101.554 153.714C101.547 153.753 101.547 153.793 101.554 153.831C101.56 153.87 101.573 153.907 101.592 153.938C101.611 153.97 101.635 153.997 101.663 154.016C101.69 154.036 101.721 154.048 101.753 154.052L124.664 156.729Z" fill="#575A89"/>
<path d="M31.35 129.47C31.641 129.223 31.8847 128.9 32.064 128.524C32.2433 128.148 32.3537 127.727 32.3876 127.293C32.4215 126.858 32.3779 126.419 32.26 126.007C32.1421 125.595 31.9528 125.22 31.7052 124.909L32.641 99.0383L27.877 99.7005L28.1539 125.006C27.7588 125.555 27.5402 126.265 27.5396 127.001C27.539 127.736 27.7563 128.447 28.1504 128.997C28.5446 129.547 29.0881 129.9 29.6779 129.987C30.2676 130.074 30.8627 129.89 31.3502 129.469L31.35 129.47Z" fill="#A0616A"/>
<path d="M40.041 173.264L42.7525 173.855L45.4323 161.182L41.8796 160.311L40.041 173.264Z" fill="#A0616A"/>
<path d="M47.5399 178.111L39.0182 176.256L39.597 172.178L44.8262 173.317C45.6994 173.507 46.4759 174.119 46.9848 175.018C47.4937 175.917 47.6933 177.03 47.5398 178.112L47.5399 178.111Z" fill="#2F2E41"/>
<path d="M32.5987 174.945H35.3518L36.6614 161.793H32.5983L32.5987 174.945Z" fill="#A0616A"/>
<path d="M40.6602 178.112L32.0079 178.112L32.0077 173.972L37.3171 173.972C38.2037 173.972 39.054 174.408 39.681 175.184C40.3079 175.961 40.6602 177.014 40.6602 178.112V178.112Z" fill="#2F2E41"/>
<path d="M44.0845 170.231C44.0416 170.231 43.9987 170.228 43.9561 170.221L40.7157 169.891C40.5682 169.87 40.4258 169.811 40.297 169.72C40.1683 169.628 40.0559 169.505 39.9668 169.357C39.8777 169.21 39.8137 169.042 39.7786 168.863C39.7436 168.685 39.7383 168.499 39.763 168.317L42.9797 148.659L40.9587 135.455C40.9422 135.348 40.895 135.252 40.8257 135.184C40.7564 135.117 40.6697 135.082 40.5817 135.088C40.4936 135.093 40.4101 135.138 40.3465 135.214C40.283 135.289 40.2437 135.391 40.2359 135.5L37.258 169.049C37.2302 169.403 37.0927 169.729 36.8744 169.959C36.6562 170.189 36.3742 170.306 36.0881 170.283L33.0353 170.143C32.7678 170.119 32.5165 169.975 32.3288 169.738C32.1411 169.501 32.0301 169.186 32.0167 168.855L32.2606 128.313L48.0875 125.862L49.1932 147.011L49.1887 147.034L45.1487 169.194C45.0906 169.489 44.9541 169.752 44.7612 169.94C44.5683 170.128 44.33 170.23 44.0845 170.231V170.231Z" fill="#2F2E41"/>
<path d="M37.4799 82.2747C40.5259 82.2747 42.9952 79.2163 42.9952 75.4436C42.9952 71.6709 40.5259 68.6125 37.4799 68.6125C34.4339 68.6125 31.9646 71.6709 31.9646 75.4436C31.9646 79.2163 34.4339 82.2747 37.4799 82.2747Z" fill="#A0616A"/>
<path d="M42.6766 131.398C41.814 131.404 40.9679 131.104 40.2386 130.534C37.5664 128.466 34.5324 129.288 32.9614 129.962C32.8055 130.03 32.6392 130.053 32.4751 130.029C32.311 130.006 32.1532 129.937 32.0135 129.828C31.8755 129.721 31.7589 129.576 31.6724 129.405C31.5859 129.234 31.5318 129.041 31.5141 128.84L28.6576 97.238C28.1788 91.943 30.754 86.9648 34.7807 85.4008C34.9321 85.3421 35.0859 85.2864 35.2422 85.234C36.4953 84.8132 37.8076 84.7376 39.0868 85.0126C40.366 85.2876 41.5809 85.9065 42.6462 86.8257C43.7314 87.7549 44.639 88.9675 45.305 90.3779C45.971 91.7884 46.3793 93.3626 46.5012 94.9896L48.9064 126.804C48.9228 127.01 48.9004 127.218 48.8409 127.411C48.7814 127.604 48.6864 127.778 48.5635 127.918C47.7201 128.884 45.2729 131.398 42.6766 131.398Z" fill="#575A89"/>
<path d="M33.9771 104.015L27.5323 103.137C27.3489 103.112 27.172 103.038 27.0137 102.921C26.8553 102.804 26.7193 102.646 26.6147 102.457C26.5102 102.269 26.4397 102.055 26.4079 101.83C26.3762 101.605 26.384 101.374 26.4309 101.153L28.0715 93.4081C28.1198 92.8277 28.2605 92.2648 28.4855 91.7521C28.7105 91.2393 29.0154 90.7869 29.3824 90.421C29.7494 90.055 30.1713 89.7828 30.6238 89.62C31.0762 89.4573 31.5503 89.4072 32.0184 89.4726C32.4866 89.5381 32.9397 89.7179 33.3515 90.0015C33.7632 90.2851 34.1255 90.667 34.4174 91.1251C34.7093 91.5832 34.925 92.1084 35.052 92.6704C35.1791 93.2323 35.2149 93.8199 35.1575 94.3991L35.4012 102.374C35.4082 102.603 35.3753 102.83 35.3049 103.042C35.2344 103.253 35.128 103.443 34.993 103.599C34.8579 103.754 34.6973 103.872 34.5222 103.944C34.347 104.016 34.1614 104.04 33.978 104.015L33.9771 104.015Z" fill="#575A89"/>
<path d="M48.8801 128.363C49.1449 128.074 49.3553 127.717 49.4966 127.317C49.6379 126.917 49.7066 126.483 49.6979 126.046C49.6892 125.61 49.6033 125.181 49.4463 124.789C49.2892 124.398 49.0649 124.055 48.789 123.782L47.2007 97.9605L42.5324 99.2622L45.272 124.409C44.9332 125.013 44.7853 125.75 44.8562 126.481C44.9271 127.211 45.212 127.884 45.6568 128.371C46.1016 128.859 46.6754 129.127 47.2694 129.126C47.8633 129.124 48.4362 128.853 48.8792 128.363H48.8801Z" fill="#A0616A"/>
<path d="M40.7429 102.392C40.6078 102.236 40.5014 102.046 40.4309 101.835C40.3605 101.624 40.3277 101.396 40.3347 101.168L40.5783 93.1926C40.5258 92.6163 40.5654 92.0328 40.6949 91.4755C40.8245 90.9182 41.0413 90.398 41.3332 89.9445C41.625 89.491 41.9861 89.1131 42.3959 88.8325C42.8057 88.5518 43.256 88.3739 43.7213 88.3088C44.1866 88.2437 44.6577 88.2928 45.1076 88.4532C45.5576 88.6136 45.9776 88.8823 46.3438 89.2437C46.7099 89.6052 47.015 90.0525 47.2416 90.56C47.4682 91.0675 47.6119 91.6253 47.6644 92.2016L49.305 99.9464C49.3518 100.167 49.3597 100.398 49.3279 100.623C49.2962 100.849 49.2257 101.063 49.1211 101.251C49.0166 101.439 48.8805 101.597 48.7222 101.715C48.5638 101.832 48.3869 101.906 48.2036 101.931L41.7588 102.808C41.5754 102.833 41.3897 102.809 41.2145 102.737C41.0394 102.665 40.8788 102.547 40.7438 102.391L40.7429 102.392Z" fill="#575A89"/>
<path d="M37.1518 82.532C37.0535 82.5319 36.9556 82.5178 36.8599 82.49L36.8318 82.4816C31.9828 81.5638 30.911 78.0839 30.6759 76.6312C30.4325 75.1271 30.7096 73.6752 31.3361 73.1112C30.9945 71.7762 31.0493 70.5911 31.4993 69.5896C32.2853 67.8429 33.9876 67.2533 34.2164 67.1799C35.5768 65.9369 37.2044 66.7666 37.5006 66.9348C40.1321 65.7291 41.1384 66.7326 41.3198 66.9568C42.496 67.2185 43.213 67.7812 43.4511 68.63C43.8981 70.224 42.4843 72.2067 42.4239 72.2905L42.3925 72.3338L40.2862 72.4582C40.0863 72.47 39.8907 72.5337 39.712 72.6452C39.5333 72.7567 39.3755 72.9135 39.2488 73.1053C39.1222 73.2972 39.0295 73.5199 38.9769 73.759C38.9242 73.9981 38.9127 74.2483 38.9431 74.4932C39.0001 74.8092 39.0721 75.1208 39.1587 75.4263C39.518 76.8187 39.7874 78.0082 39.4403 78.4604C39.3615 78.5479 39.2645 78.6062 39.1602 78.6286C39.056 78.651 38.9488 78.6365 38.8508 78.587C38.5214 78.478 38.298 78.5008 38.1866 78.6551C38.0137 78.894 38.0664 79.4993 38.3352 80.3587C38.4196 80.6305 38.4423 80.9257 38.4009 81.2123C38.3595 81.499 38.2555 81.7661 38.1003 81.9849C37.9835 82.1556 37.8381 82.2929 37.6743 82.3873C37.5105 82.4818 37.3321 82.5311 37.1514 82.532H37.1518Z" fill="#2F2E41"/>
</svg>
